<?xml version="1.0" encoding="UTF-8" standalone="no"?>
<svg width="40px" height="40px" viewBox="0 0 40 40" version="1.1" xmlns="http://www.w3.org/2000/svg" xmlns:xlink="http://www.w3.org/1999/xlink">
    <!-- Generator: Sketch 45.1 (43504) - http://www.bohemiancoding.com/sketch -->
    <title>Shape</title>
    <desc>Created with Sketch.</desc>
    <defs></defs>
    <g id="Page-1" stroke="none" stroke-width="1" fill="none" fill-rule="evenodd">
        <g id="登录-" transform="translate(-938.000000, -627.000000)" fill="#4CBD63">
            <path d="M960.639372,646.983646 C960.183415,646.983646 959.727177,647.407175 959.727177,647.92869 C959.727177,648.352079 960.183134,648.775468 960.639372,648.775468 C961.32401,648.775468 961.812676,648.351938 961.812676,647.92869 C961.812676,647.407315 961.32401,646.983646 960.639372,646.983646 L960.639372,646.983646 Z M957.641818,642.584529 C958.358743,642.584529 958.814841,642.128571 958.814841,641.444074 C958.814841,640.727429 958.358743,640.303619 957.641818,640.303619 C956.957461,640.303619 956.305672,640.727429 956.305672,641.444074 C956.305672,642.128712 956.957461,642.584529 957.641818,642.584529 L957.641818,642.584529 Z M958.000211,627 C946.954618,627 938,635.954197 938,646.999789 C938,658.045803 946.954618,667 958.000211,667 C969.045803,667 978,658.045803 978,646.999789 C978.00014,635.954197 969.046084,627 958.000211,627 L958.000211,627 Z M954.220173,652.06712 C953.014582,652.06712 952.134674,651.871569 950.993939,651.545324 L947.702849,653.207574 L948.648174,650.40515 C946.334415,648.77617 944.965842,646.723099 944.965842,644.21379 C944.965842,639.782245 949.13684,636.393449 954.220173,636.393449 C958.716855,636.393449 962.725432,639.065319 963.507214,642.845777 C963.18139,642.780079 962.887994,642.747651 962.627447,642.747651 C958.195621,642.747651 954.774257,646.07145 954.774257,650.079326 C954.774257,650.763823 954.871962,651.382763 955.034804,652.034832 C954.774397,652.06712 954.481001,652.06712 954.220173,652.06712 L954.220173,652.06712 Z M967.808626,655.260364 L968.460274,657.606691 L965.983533,656.20569 C965.03877,656.400959 964.126294,656.694215 963.18139,656.694215 C958.814841,656.694215 955.360909,653.696521 955.360909,649.981761 C955.360909,646.267001 958.814841,643.269166 963.18139,643.269166 C967.319819,643.269166 971.034299,646.267001 971.034299,649.981761 C971.034439,652.06712 969.633157,653.924359 967.808626,655.260364 L967.808626,655.260364 Z M951.18977,640.303479 C950.505413,640.303479 949.788769,640.727289 949.788769,641.443934 C949.788769,642.128431 950.505413,642.584809 951.18977,642.584809 C951.841559,642.584809 952.362793,642.128431 952.362793,641.443934 C952.362793,640.727289 951.841559,640.303479 951.18977,640.303479 L951.18977,640.303479 Z M965.755414,646.983646 C965.266748,646.983646 964.843079,647.407175 964.843079,647.92869 C964.843079,648.352079 965.266748,648.775468 965.755414,648.775468 C966.407203,648.775468 966.895869,648.351938 966.895869,647.92869 C966.895869,647.407315 966.407203,646.983646 965.755414,646.983646 L965.755414,646.983646 Z" id="Shape"></path>
        </g>
    </g>
</svg>