<?xml version="1.0" encoding="UTF-8" standalone="no"?>
<svg width="14px" height="15px" viewBox="0 0 14 15" version="1.1" xmlns="http://www.w3.org/2000/svg" xmlns:xlink="http://www.w3.org/1999/xlink">
    <!-- Generator: Sketch 48.2 (47327) - http://www.bohemiancoding.com/sketch -->
    <title>Group 3</title>
    <desc>Created with Sketch.</desc>
    <defs>
        <polygon id="path-1" points="1.0020176 7.01242463 6.78934428 7.01242463 6.78934428 12.8017032 1.0020176 12.8017032"></polygon>
    </defs>
    <g id="主控制台" stroke="none" stroke-width="1" fill="none" fill-rule="evenodd" transform="translate(-19.000000, -387.000000)">
        <g id="左道航" transform="translate(0.000000, 58.000000)">
            <g id="Page-1" transform="translate(19.000000, 329.000000)">
                <g id="Group-3" transform="translate(0.000000, 0.181818)">
                    <g id="Group-6" transform="translate(1.000000, -0.000000)">
                        <path d="M5.78934428,9.90706393 C5.78934428,11.5050463 4.49264047,12.8017032 2.89465806,12.8017032 C1.29658182,12.8017032 -2.81524927e-05,11.5050463 -2.81524927e-05,9.90706393 C-2.81524927e-05,8.30898768 1.29658182,7.01242463 2.89465806,7.01242463 L5.78934428,7.01242463 L5.78934428,9.90706393 Z" id="Fill-1" fill="#59B8E9"></path>
                        <path d="M6.18181818,9.90909091 C6.18181818,11.5150513 7.48489097,12.8181818 9.09088551,12.8181818 C10.6968801,12.8181818 12,11.5150513 12,9.90909091 C12,8.3030362 10.6968801,7 9.09088551,7 L6.18181818,7 L6.18181818,9.90909091 Z" id="Fill-4" fill="#35DEC4"></path>
                        <path d="M5.78934428,3.72102757 C5.78934428,2.12299824 4.49264047,0.82638827 2.89465806,0.82638827 C1.29658182,0.82638827 -2.81524927e-05,2.12299824 -2.81524927e-05,3.72102757 C-2.81524927e-05,5.31905689 1.29658182,6.61566686 2.89465806,6.61566686 L5.78934428,6.61566686 L5.78934428,3.72102757 Z" id="Fill-6" fill="#F36A5A"></path>
                        <path d="M6.1860176,3.72102757 C6.1860176,2.12299824 7.48262757,0.82638827 9.08065689,0.82638827 C10.6786862,0.82638827 11.9753431,2.12299824 11.9753431,3.72102757 C11.9753431,5.31905689 10.6786862,6.61566686 9.08065689,6.61566686 L6.1860176,6.61566686 L6.1860176,3.72102757 Z" id="Fill-9" fill="#FECF37"></path>
                    </g>
                    <mask id="mask-2" fill="white">
                        <use xlink:href="#path-1"></use>
                    </mask>
                    <g id="Clip-2"></g>
                </g>
            </g>
        </g>
    </g>
</svg>